<mxfile host="app.diagrams.net" modified="2021-02-08T09:40:30.363Z" agent="5.0 (Macintosh; Intel Mac OS X 10_15_7) AppleWebKit/537.36 (KHTML, like Gecko) Chrome/88.0.4324.96 Safari/537.36" etag="ZQ1RZnG7iSXKDtW4lDZQ" version="14.1.8" type="github">
  <diagram id="k36hDR3mZl_zlkzMLJnp" name="Page-1">
    <mxGraphModel dx="927" dy="614" grid="1" gridSize="10" guides="1" tooltips="1" connect="1" arrows="1" fold="1" page="1" pageScale="1" pageWidth="827" pageHeight="1169" math="0" shadow="0">
      <root>
        <mxCell id="0" />
        <mxCell id="1" parent="0" />
        <mxCell id="4UaZg8QxVclwD0Rj24-q-4" value="" style="edgeStyle=orthogonalEdgeStyle;rounded=0;orthogonalLoop=1;jettySize=auto;html=1;" parent="1" source="4UaZg8QxVclwD0Rj24-q-2" target="4UaZg8QxVclwD0Rj24-q-3" edge="1">
          <mxGeometry relative="1" as="geometry" />
        </mxCell>
        <mxCell id="4UaZg8QxVclwD0Rj24-q-2" value="Service Provider" style="rounded=0;whiteSpace=wrap;html=1;fillColor=#0050ef;strokeColor=#001DBC;fontColor=#ffffff;" parent="1" vertex="1">
          <mxGeometry x="450" y="130" width="120" height="60" as="geometry" />
        </mxCell>
        <mxCell id="4UaZg8QxVclwD0Rj24-q-6" value="" style="edgeStyle=orthogonalEdgeStyle;rounded=0;orthogonalLoop=1;jettySize=auto;html=1;" parent="1" source="4UaZg8QxVclwD0Rj24-q-3" target="4UaZg8QxVclwD0Rj24-q-5" edge="1">
          <mxGeometry relative="1" as="geometry" />
        </mxCell>
        <mxCell id="4UaZg8QxVclwD0Rj24-q-3" value="&lt;span&gt;1. initial data schema&lt;/span&gt;&lt;br&gt;&lt;span&gt;2. create stored procedure&lt;/span&gt;&lt;br&gt;&lt;div style=&quot;text-align: center&quot;&gt;&lt;span&gt;(for data conveter)&lt;/span&gt;&lt;/div&gt;" style="rounded=0;whiteSpace=wrap;html=1;align=left;spacing=0;fillColor=#f8cecc;strokeColor=#b85450;" parent="1" vertex="1">
          <mxGeometry x="436.25" y="220" width="147.5" height="60" as="geometry" />
        </mxCell>
        <mxCell id="4UaZg8QxVclwD0Rj24-q-8" value="" style="edgeStyle=orthogonalEdgeStyle;rounded=0;orthogonalLoop=1;jettySize=auto;html=1;" parent="1" source="4UaZg8QxVclwD0Rj24-q-5" target="4UaZg8QxVclwD0Rj24-q-7" edge="1">
          <mxGeometry relative="1" as="geometry" />
        </mxCell>
        <mxCell id="4UaZg8QxVclwD0Rj24-q-5" value="create &lt;br&gt;universal template" style="rounded=0;whiteSpace=wrap;html=1;fillColor=#e1d5e7;strokeColor=#9673a6;" parent="1" vertex="1">
          <mxGeometry x="450" y="320" width="120" height="60" as="geometry" />
        </mxCell>
        <mxCell id="4UaZg8QxVclwD0Rj24-q-46" value="" style="edgeStyle=orthogonalEdgeStyle;rounded=0;orthogonalLoop=1;jettySize=auto;html=1;" parent="1" source="4UaZg8QxVclwD0Rj24-q-7" target="4UaZg8QxVclwD0Rj24-q-44" edge="1">
          <mxGeometry relative="1" as="geometry" />
        </mxCell>
        <mxCell id="4UaZg8QxVclwD0Rj24-q-7" value="import &lt;br&gt;customer csv data (software)" style="rounded=0;whiteSpace=wrap;html=1;fillColor=#fff2cc;strokeColor=#d6b656;" parent="1" vertex="1">
          <mxGeometry x="450" y="410" width="120" height="60" as="geometry" />
        </mxCell>
        <mxCell id="4UaZg8QxVclwD0Rj24-q-9" value="" style="edgeStyle=orthogonalEdgeStyle;rounded=0;orthogonalLoop=1;jettySize=auto;html=1;" parent="1" source="4UaZg8QxVclwD0Rj24-q-10" target="4UaZg8QxVclwD0Rj24-q-12" edge="1">
          <mxGeometry relative="1" as="geometry" />
        </mxCell>
        <mxCell id="4UaZg8QxVclwD0Rj24-q-10" value="Developer&lt;br&gt;(API Authentication)" style="rounded=0;whiteSpace=wrap;html=1;fillColor=#008a00;strokeColor=#005700;fontColor=#ffffff;" parent="1" vertex="1">
          <mxGeometry x="290" y="130" width="120" height="60" as="geometry" />
        </mxCell>
        <mxCell id="4UaZg8QxVclwD0Rj24-q-11" value="" style="edgeStyle=orthogonalEdgeStyle;rounded=0;orthogonalLoop=1;jettySize=auto;html=1;" parent="1" source="4UaZg8QxVclwD0Rj24-q-12" target="4UaZg8QxVclwD0Rj24-q-14" edge="1">
          <mxGeometry relative="1" as="geometry" />
        </mxCell>
        <mxCell id="4UaZg8QxVclwD0Rj24-q-12" value="sign up &lt;br&gt;reporter system" style="rounded=0;whiteSpace=wrap;html=1;" parent="1" vertex="1">
          <mxGeometry x="290" y="220" width="120" height="60" as="geometry" />
        </mxCell>
        <mxCell id="4UaZg8QxVclwD0Rj24-q-13" value="" style="edgeStyle=orthogonalEdgeStyle;rounded=0;orthogonalLoop=1;jettySize=auto;html=1;" parent="1" source="4UaZg8QxVclwD0Rj24-q-14" target="4UaZg8QxVclwD0Rj24-q-15" edge="1">
          <mxGeometry relative="1" as="geometry" />
        </mxCell>
        <mxCell id="4UaZg8QxVclwD0Rj24-q-14" value="get reporter system access token" style="rounded=0;whiteSpace=wrap;html=1;" parent="1" vertex="1">
          <mxGeometry x="290" y="320" width="120" height="60" as="geometry" />
        </mxCell>
        <mxCell id="4UaZg8QxVclwD0Rj24-q-17" value="" style="edgeStyle=orthogonalEdgeStyle;rounded=0;orthogonalLoop=1;jettySize=auto;html=1;" parent="1" source="4UaZg8QxVclwD0Rj24-q-15" target="4UaZg8QxVclwD0Rj24-q-16" edge="1">
          <mxGeometry relative="1" as="geometry" />
        </mxCell>
        <mxCell id="4UaZg8QxVclwD0Rj24-q-15" value="read api document" style="rounded=0;whiteSpace=wrap;html=1;" parent="1" vertex="1">
          <mxGeometry x="290" y="410" width="120" height="60" as="geometry" />
        </mxCell>
        <mxCell id="4UaZg8QxVclwD0Rj24-q-16" value="use api in project&lt;br&gt;&lt;div style=&quot;text-align: left&quot;&gt;&lt;span&gt;- create new job&lt;/span&gt;&lt;/div&gt;&lt;div style=&quot;text-align: left&quot;&gt;&lt;span&gt;- get jobs detail&lt;/span&gt;&lt;/div&gt;&lt;div style=&quot;text-align: left&quot;&gt;&lt;span&gt;- get file link&lt;/span&gt;&lt;/div&gt;" style="rounded=0;whiteSpace=wrap;html=1;" parent="1" vertex="1">
          <mxGeometry x="290" y="500" width="120" height="60" as="geometry" />
        </mxCell>
        <mxCell id="4UaZg8QxVclwD0Rj24-q-18" value="" style="edgeStyle=orthogonalEdgeStyle;rounded=0;orthogonalLoop=1;jettySize=auto;html=1;" parent="1" source="4UaZg8QxVclwD0Rj24-q-19" target="4UaZg8QxVclwD0Rj24-q-21" edge="1">
          <mxGeometry relative="1" as="geometry" />
        </mxCell>
        <mxCell id="4UaZg8QxVclwD0Rj24-q-19" value="User (GUI)" style="rounded=0;whiteSpace=wrap;html=1;fillColor=#e51400;strokeColor=#B20000;fontColor=#ffffff;" parent="1" vertex="1">
          <mxGeometry x="130" y="130" width="120" height="60" as="geometry" />
        </mxCell>
        <mxCell id="4UaZg8QxVclwD0Rj24-q-20" value="" style="edgeStyle=orthogonalEdgeStyle;rounded=0;orthogonalLoop=1;jettySize=auto;html=1;" parent="1" source="4UaZg8QxVclwD0Rj24-q-21" target="4UaZg8QxVclwD0Rj24-q-23" edge="1">
          <mxGeometry relative="1" as="geometry" />
        </mxCell>
        <mxCell id="4UaZg8QxVclwD0Rj24-q-21" value="import csv data (online)" style="rounded=0;whiteSpace=wrap;html=1;fillColor=#fff2cc;strokeColor=#d6b656;" parent="1" vertex="1">
          <mxGeometry x="130" y="220" width="120" height="60" as="geometry" />
        </mxCell>
        <mxCell id="4UaZg8QxVclwD0Rj24-q-22" value="" style="edgeStyle=orthogonalEdgeStyle;rounded=0;orthogonalLoop=1;jettySize=auto;html=1;" parent="1" source="4UaZg8QxVclwD0Rj24-q-23" target="4UaZg8QxVclwD0Rj24-q-25" edge="1">
          <mxGeometry relative="1" as="geometry" />
        </mxCell>
        <mxCell id="4UaZg8QxVclwD0Rj24-q-23" value="create report layout &lt;br&gt;or &lt;br&gt;select universal template" style="rounded=0;whiteSpace=wrap;html=1;fillColor=#e1d5e7;strokeColor=#9673a6;" parent="1" vertex="1">
          <mxGeometry x="130" y="320" width="120" height="60" as="geometry" />
        </mxCell>
        <mxCell id="4UaZg8QxVclwD0Rj24-q-24" value="" style="edgeStyle=orthogonalEdgeStyle;rounded=0;orthogonalLoop=1;jettySize=auto;html=1;" parent="1" source="4UaZg8QxVclwD0Rj24-q-25" target="4UaZg8QxVclwD0Rj24-q-26" edge="1">
          <mxGeometry relative="1" as="geometry" />
        </mxCell>
        <mxCell id="4UaZg8QxVclwD0Rj24-q-25" value="report setting" style="rounded=0;whiteSpace=wrap;html=1;fillColor=#dae8fc;strokeColor=#6c8ebf;" parent="1" vertex="1">
          <mxGeometry x="130" y="410" width="120" height="60" as="geometry" />
        </mxCell>
        <mxCell id="4UaZg8QxVclwD0Rj24-q-28" value="" style="edgeStyle=orthogonalEdgeStyle;rounded=0;orthogonalLoop=1;jettySize=auto;html=1;" parent="1" source="4UaZg8QxVclwD0Rj24-q-26" target="4UaZg8QxVclwD0Rj24-q-27" edge="1">
          <mxGeometry relative="1" as="geometry" />
        </mxCell>
        <mxCell id="4UaZg8QxVclwD0Rj24-q-26" value="submit new report job &lt;br&gt;(analysis, schedule, custom)" style="rounded=0;whiteSpace=wrap;html=1;" parent="1" vertex="1">
          <mxGeometry x="130" y="500" width="120" height="60" as="geometry" />
        </mxCell>
        <mxCell id="4UaZg8QxVclwD0Rj24-q-30" value="" style="edgeStyle=orthogonalEdgeStyle;rounded=0;orthogonalLoop=1;jettySize=auto;html=1;" parent="1" source="4UaZg8QxVclwD0Rj24-q-27" target="4UaZg8QxVclwD0Rj24-q-29" edge="1">
          <mxGeometry relative="1" as="geometry" />
        </mxCell>
        <mxCell id="4UaZg8QxVclwD0Rj24-q-27" value="check out job details / history" style="rounded=0;whiteSpace=wrap;html=1;" parent="1" vertex="1">
          <mxGeometry x="130" y="590" width="120" height="60" as="geometry" />
        </mxCell>
        <mxCell id="4UaZg8QxVclwD0Rj24-q-29" value="download file" style="rounded=0;whiteSpace=wrap;html=1;" parent="1" vertex="1">
          <mxGeometry x="130" y="690" width="120" height="60" as="geometry" />
        </mxCell>
        <mxCell id="4UaZg8QxVclwD0Rj24-q-44" value="manage users: &lt;br&gt;&lt;div style=&quot;text-align: left&quot;&gt;&lt;span&gt;- access token&lt;/span&gt;&lt;/div&gt;&lt;div style=&quot;text-align: left&quot;&gt;&lt;span&gt;- status&lt;/span&gt;&lt;/div&gt;&lt;div style=&quot;text-align: left&quot;&gt;&lt;span&gt;- profile&lt;/span&gt;&lt;/div&gt;" style="rounded=0;whiteSpace=wrap;html=1;" parent="1" vertex="1">
          <mxGeometry x="455" y="500" width="110" height="60" as="geometry" />
        </mxCell>
      </root>
    </mxGraphModel>
  </diagram>
</mxfile>
